<svg xmlns="http://www.w3.org/2000/svg" width="16" height="16" viewBox="0 0 16 16">
  <path id="Caminho_482" data-name="Caminho 482" d="M514,334.005,526,334s0-5,0-5a1,1,0,0,1,2,0v5.005A2,2,0,0,1,526,336H514a2,2,0,0,1-2-1.995V329a1,1,0,0,1,2,0v5.005Zm5-7.258-2.294-2.48a.992.992,0,0,0-1.414,0,1.023,1.023,0,0,0,0,1.432l3.648,3.848a1.487,1.487,0,0,0,2.12,0l3.647-3.85a1.02,1.02,0,0,0,0-1.43.99.99,0,0,0-1.414,0L521,326.744V321a1,1,0,0,0-2,0v5.747Z" transform="translate(-512 -320)" fill="#fff" fill-rule="evenodd"/>
</svg>
